
        <svg width="256" height="256" viewBox="0 0 256 256" xmlns="http://www.w3.org/2000/svg">
          <!-- Background centered with margin consideration -->
          <rect x="0" y="0" width="256" height="256" fill="#334155" rx="51.2" ry="51.2"/>

          <!-- Icon centered and scaled to specified size -->
          <g transform="translate(44.8, 44.8) scale(10.4)">
            
  <path d="M15.502 1.94a.5.5 0 0 1 0 .706L14.459 3.69l-2-2L13.502.646a.5.5 0 0 1 .707 0l1.293 1.293zm-1.75 2.456-2-2L4.939 9.21a.5.5 0 0 0-.121.196l-.805 2.414a.25.25 0 0 0 .316.316l2.414-.805a.5.5 0 0 0 .196-.12l6.813-6.814z" fill="#ffffff"></path>
  <path fill-rule="evenodd" d="M1 13.5A1.5 1.5 0 0 0 2.5 15h11a1.5 1.5 0 0 0 1.5-1.5v-6a.5.5 0 0 0-1 0v6a.5.5 0 0 1-.5.5h-11a.5.5 0 0 1-.5-.5v-11a.5.5 0 0 1 .5-.5H9a.5.5 0 0 0 0-1H2.5A1.5 1.5 0 0 0 1 2.5z" fill="#ffffff"></path>

          </g>
        </svg>
      